<?xml version="1.0" standalone="no"?>
<!DOCTYPE svg PUBLIC "-//W3C//DTD SVG 20010904//EN"
 "http://www.w3.org/TR/2001/REC-SVG-20010904/DTD/svg10.dtd">
<svg version="1.0" xmlns="http://www.w3.org/2000/svg"
 width="512.000000pt" height="512.000000pt" viewBox="0 0 512.000000 512.000000"
 preserveAspectRatio="xMidYMid meet">

<g transform="translate(0.000000,512.000000) scale(0.100000,-0.100000)"
fill="#000000" stroke="none">
<path d="M2100 5114 c-536 -66 -973 -424 -1139 -931 -83 -255 -83 -571 0 -826
154 -471 531 -806 1029 -913 131 -28 391 -26 529 4 550 123 962 549 1055 1091
21 123 21 339 0 462 -70 407 -337 774 -702 963 -202 104 -362 145 -587 150
-82 3 -166 2 -185 0z m358 -418 c328 -81 589 -321 690 -636 60 -186 57 -417
-6 -600 -106 -304 -366 -538 -684 -615 -102 -25 -259 -30 -364 -11 -395 69
-696 358 -779 749 -17 80 -20 268 -4 353 68 386 376 695 768 769 93 18 288 13
379 -9z"/>
<path d="M1910 2009 c-109 -13 -259 -46 -364 -80 -128 -42 -374 -167 -481
-243 -448 -322 -732 -829 -764 -1366 -9 -146 2 -206 45 -252 85 -90 219 -88
301 5 36 41 53 106 53 206 0 204 100 507 230 702 216 321 541 538 927 616 74
15 140 18 408 18 346 0 402 -6 578 -62 96 -30 146 -27 211 11 60 35 101 115
93 182 -7 65 -52 133 -107 160 -52 25 -196 66 -320 90 -100 19 -684 29 -810
13z"/>
<path d="M3745 1981 c-57 -26 -101 -79 -114 -141 -7 -30 -11 -169 -11 -345 l0
-295 -317 0 c-288 0 -322 -2 -358 -19 -77 -36 -115 -95 -115 -181 0 -86 38
-145 115 -181 36 -17 70 -19 358 -19 l317 0 0 -295 c0 -329 6 -378 53 -432
111 -126 311 -75 346 87 7 30 11 169 11 345 l0 295 318 0 c287 0 321 2 357 19
77 36 115 95 115 181 0 86 -38 145 -115 181 -36 17 -70 19 -357 19 l-318 0 0
295 c0 176 -4 315 -11 345 -19 90 -104 160 -194 160 -22 0 -58 -9 -80 -19z"/>
</g>
</svg>
