<?xml version="1.0" standalone="no"?>
<!DOCTYPE svg PUBLIC "-//W3C//DTD SVG 20010904//EN"
 "http://www.w3.org/TR/2001/REC-SVG-20010904/DTD/svg10.dtd">
<svg version="1.0" xmlns="http://www.w3.org/2000/svg"
 width="512.000000pt" height="512.000000pt" viewBox="0 0 512.000000 512.000000"
 preserveAspectRatio="xMidYMid meet">

<g transform="translate(0.000000,512.000000) scale(0.100000,-0.100000)"
fill="#000000" stroke="none">
<path d="M2315 5109 c-322 -33 -628 -124 -925 -274 -378 -193 -721 -500 -967
-867 -160 -240 -311 -601 -367 -878 -43 -214 -51 -295 -51 -530 0 -312 34
-527 126 -805 127 -383 355 -745 650 -1030 398 -385 867 -615 1429 -702 142
-21 528 -25 665 -5 493 71 922 254 1295 555 129 104 319 299 421 432 228 300
402 676 473 1025 43 212 51 295 51 530 0 312 -34 525 -126 805 -177 535 -544
1014 -1022 1332 -301 200 -680 344 -1052 399 -122 18 -477 26 -600 13z m429
-1079 c95 -24 213 -84 288 -147 329 -275 357 -774 61 -1079 -146 -150 -328
-226 -538 -226 -335 2 -626 227 -712 552 -24 89 -24 282 0 368 70 258 276 466
529 532 102 26 269 27 372 0z m-739 -1519 c165 -111 313 -160 508 -168 243
-11 423 42 621 181 92 64 120 73 171 52 115 -48 370 -277 474 -426 155 -221
252 -487 268 -732 9 -142 -8 -171 -112 -197 -199 -50 -548 -106 -825 -133
-183 -18 -917 -18 -1100 0 -332 33 -841 122 -895 158 -39 25 -49 65 -42 172
12 182 78 405 169 572 125 229 357 470 554 575 65 35 86 30 209 -54z"/>
<path d="M2410 3791 c-248 -79 -399 -348 -335 -594 60 -230 251 -379 485 -379
201 0 366 106 452 289 126 267 -19 596 -301 683 -82 26 -223 26 -301 1z"/>
<path d="M1792 2275 c-134 -101 -275 -272 -356 -433 -68 -135 -141 -398 -112
-407 58 -20 388 -73 641 -102 220 -26 961 -26 1190 0 228 26 584 82 641 102
16 5 -8 132 -46 247 -75 226 -224 436 -417 590 l-64 50 -38 -25 c-69 -46 -214
-114 -299 -141 -240 -75 -504 -75 -744 0 -80 25 -235 97 -288 133 -14 10 -30
21 -37 24 -6 4 -38 -13 -71 -38z"/>
</g>
</svg>
