<?xml version="1.0" standalone="no"?>
<!DOCTYPE svg PUBLIC "-//W3C//DTD SVG 20010904//EN"
 "http://www.w3.org/TR/2001/REC-SVG-20010904/DTD/svg10.dtd">
<svg version="1.0" xmlns="http://www.w3.org/2000/svg"
 width="620.000000pt" height="403.000000pt" viewBox="0 0 620.000000 403.000000"
 preserveAspectRatio="xMidYMid meet">

<g transform="translate(0.000000,403.000000) scale(0.100000,-0.100000)"
fill="#000000" stroke="none">
<path d="M3989 2714 l-109 -108 -43 42 c-44 43 -77 54 -77 26 0 -18 88 -129
109 -139 20 -8 263 234 259 259 -2 11 -9 21 -16 24 -7 2 -62 -45 -123 -104z"/>
<path d="M2555 2646 c-22 -16 -14 -43 16 -55 15 -5 18 -10 11 -15 -17 -10 -15
-36 2 -36 10 0 14 -9 13 -27 -2 -26 1 -28 41 -31 47 -3 80 14 62 32 -15 15
-12 23 12 29 21 6 21 7 4 25 -16 19 -16 20 9 26 27 7 34 33 13 54 -17 17 -159
16 -183 -2z"/>
<path d="M3258 2383 l-108 -4 0 -39 0 -40 140 0 139 0 20 -67 c11 -38 47 -165
81 -283 47 -162 68 -220 86 -239 29 -29 39 -61 30 -99 -9 -36 -9 -42 -1 -77
l7 -30 -1134 0 c-623 0 -1144 -4 -1158 -8 -25 -8 -27 -5 -42 45 -15 50 -32
120 -42 178 -3 14 -32 140 -65 280 -34 140 -61 265 -61 278 l0 22 265 0 265 0
0 40 0 40 -288 0 c-311 0 -322 -2 -342 -56 -7 -17 21 -156 111 -556 66 -293
131 -585 145 -648 14 -63 27 -116 29 -118 6 -6 85 83 85 97 0 10 8 12 32 7 30
-6 30 -5 15 12 -17 19 -22 48 -11 76 4 11 19 16 44 16 35 0 39 -3 50 -36 10
-30 9 -38 -6 -55 -9 -10 -15 -21 -12 -24 9 -10 89 7 103 21 11 11 61 14 234
14 121 0 231 -4 246 -10 32 -12 59 -72 50 -109 -4 -14 -16 -36 -27 -48 -21
-22 -27 -23 -213 -23 l-192 0 -6 -72 c-4 -40 -9 -88 -13 -106 l-7 -34 1599 7
c879 4 1600 8 1601 9 0 0 3 10 5 21 3 20 -4 20 -612 25 -338 3 -616 6 -617 8
-1 1 -9 15 -18 32 -31 60 -12 165 34 190 12 6 111 10 249 10 194 0 232 -2 242
-15 10 -12 10 -21 1 -42 -20 -44 -1 -40 42 10 l42 48 80 -3 80 -3 7 -35 c22
-110 18 -105 78 -108 54 -2 54 -2 34 15 -17 15 -20 28 -18 73 l2 55 187 3
c186 2 186 2 183 25 -3 22 -5 22 -182 25 -99 1 -182 5 -185 7 -2 3 -6 56 -8
118 -4 113 -15 173 -41 214 -13 21 -11 66 4 143 5 22 4 23 -8 8 -16 -20 -117
-84 -155 -99 -16 -6 -89 -13 -163 -15 -202 -7 -208 -21 -100 -228 39 -74 70
-137 70 -140 0 -3 -412 -6 -915 -6 -772 0 -915 2 -915 14 0 7 9 16 19 19 31 8
63 66 57 105 -6 41 -44 95 -62 88 -9 -3 -14 1 -14 13 0 10 6 19 13 18 56 -2
66 3 76 39 6 20 18 45 27 55 16 18 43 19 626 19 479 0 608 3 609 13 0 6 9 -16
19 -50 10 -34 21 -67 25 -72 6 -11 67 -15 77 -6 5 5 -15 86 -65 265 -36 128
-113 406 -160 575 -34 127 -45 155 -73 183 -27 27 -38 32 -75 30 -24 -1 -92
-4 -151 -5z m1130 -1080 c1 -10 7 -40 12 -68 5 -27 12 -74 15 -102 l6 -53 -78
0 -79 0 -16 43 c-9 23 -30 78 -47 122 -17 44 -31 80 -31 80 0 0 48 -1 107 -2
96 -1 108 -3 111 -20z m-1873 -460 c9 -21 26 -48 37 -60 l21 -23 -92 0 c-59 0
-90 -4 -86 -10 4 -7 -3 -7 -20 0 -18 7 -33 7 -45 0 -13 -7 -21 -7 -25 0 -3 5
-28 10 -54 10 -56 0 -74 15 -74 62 0 52 20 58 180 58 l143 0 15 -37z"/>
<path d="M3986 2232 l-111 -109 -39 44 c-41 46 -80 58 -74 23 5 -31 90 -129
113 -130 24 0 255 227 255 251 0 9 -7 20 -16 23 -12 5 -49 -25 -128 -102z"/>
<path d="M4237 1982 c-38 -41 -12 -92 45 -92 25 0 82 -56 72 -71 -13 -21 17
-7 36 18 29 37 24 93 -10 110 -45 22 -116 53 -122 53 -3 0 -12 -8 -21 -18z"/>
<path d="M3986 1733 l-105 -108 -44 49 c-31 36 -48 48 -60 43 -9 -3 -17 -14
-17 -23 0 -20 98 -129 116 -129 21 0 254 236 254 257 0 40 -42 14 -144 -89z"/>
<path d="M4196 1749 c-27 -21 -39 -44 -52 -96 -6 -24 -5 -25 23 -19 28 6 33 3
63 -44 35 -54 57 -80 68 -80 4 0 36 22 72 50 41 31 75 49 93 50 15 0 27 6 28
13 3 36 -5 85 -17 108 -15 30 -33 39 -72 39 -24 0 -27 -4 -29 -36 -2 -44 -8
-51 -28 -34 -10 8 -29 10 -55 6 -43 -7 -51 5 -30 45 9 16 7 19 -13 19 -14 0
-36 -10 -51 -21z m124 -53 c0 -3 -4 -8 -10 -11 -5 -3 -10 -1 -10 4 0 6 5 11
10 11 6 0 10 -2 10 -4z m0 -30 c0 -3 -4 -8 -10 -11 -5 -3 -10 -1 -10 4 0 6 5
11 10 11 6 0 10 -2 10 -4z"/>
<path d="M2110 1608 c0 -58 1 -60 18 -45 12 11 22 13 35 6 15 -9 17 -4 17 46
l0 55 -35 0 -35 0 0 -62z"/>
<path d="M3300 1205 c0 -55 6 -65 28 -43 8 8 15 8 27 -2 13 -11 15 -6 15 44
l0 56 -35 0 -35 0 0 -55z"/>
<path d="M4605 1227 c-4 -11 -3 -23 4 -30 15 -15 19 -7 11 23 -6 22 -8 23 -15
7z"/>
<path d="M1024 1110 c0 -63 1 -89 3 -57 2 31 2 83 0 115 -2 31 -3 5 -3 -58z"/>
<path d="M1041 926 c-1 -50 36 -191 55 -207 10 -8 8 6 -7 47 -11 33 -27 91
-34 129 -11 57 -13 63 -14 31z"/>
<path d="M801 934 c0 -11 3 -14 6 -6 3 7 2 16 -1 19 -3 4 -6 -2 -5 -13z"/>
<path d="M1193 738 c-12 -6 -27 -23 -33 -39 -10 -24 -9 -35 7 -68 l19 -38 -79
-2 c-64 -1 -84 2 -101 16 -15 13 -17 13 -8 2 11 -14 -3 -17 -140 -22 -83 -4
-209 -7 -280 -7 -79 0 -128 -4 -128 -10 0 -13 822 -14 836 0 13 13 54 1 54
-17 0 -12 7 -14 33 -8 17 4 962 10 2100 12 1137 2 2067 8 2067 12 0 4 -34 11
-77 15 -42 3 -898 6 -1904 6 l-1827 0 11 30 c14 38 1 76 -36 104 -27 20 -42
21 -260 23 -150 1 -240 -2 -254 -9z"/>
<path d="M925 680 c10 -11 20 -20 23 -20 3 0 -3 9 -13 20 -10 11 -20 20 -23
20 -3 0 3 -9 13 -20z"/>
<path d="M2070 665 l0 -25 210 0 210 0 0 25 0 25 -210 0 -210 0 0 -25z"/>
<path d="M2530 665 c0 -24 3 -25 55 -25 52 0 55 1 55 25 0 24 -3 25 -55 25
-52 0 -55 -1 -55 -25z"/>
<path d="M2672 668 c3 -21 9 -23 58 -23 49 0 55 2 58 23 3 21 0 22 -58 22 -58
0 -61 -1 -58 -22z"/>
<path d="M4027 683 c-4 -3 -7 -10 -7 -15 0 -4 162 -8 361 -8 284 0 360 3 357
13 -4 9 -85 13 -355 15 -192 1 -352 -1 -356 -5z"/>
</g>
</svg>
